<svg width="120" height="44" viewBox="0 0 120 44" fill="none" xmlns="http://www.w3.org/2000/svg" className="w-24 sm:w-32">
  <path d="M19.623 13.208C22.124 13.2081 24.1514 15.2354 24.1514 17.7363V32.8311C24.1514 35.332 22.124 37.3593 19.623 37.3594H13.6045L8.55371 41.4473C8.00864 41.8665 6.35208 42.5169 6.28906 40.8818V37.3594H4.52832C2.02733 37.3594 0 35.332 0 32.8311V17.7363C0 15.2353 2.02733 13.208 4.52832 13.208H19.623Z" fill="#006FF2" />
  <path d="M11.5931 33.2941C10.0244 33.2941 8.58642 32.9237 7.27916 32.183C5.99369 31.4204 4.96967 30.3855 4.2071 29.0782C3.46632 27.771 3.09593 26.3112 3.09593 24.6989C3.09593 23.0866 3.46632 21.6377 4.2071 20.3523C4.96967 19.0668 5.99369 18.0428 7.27916 17.2802C8.58642 16.4959 10.0244 16.1037 11.5931 16.1037C12.835 16.1037 14.0224 16.3433 15.1554 16.8227C16.3101 17.2802 17.3233 17.9447 18.1948 18.8162L16.2993 20.9079C15.6674 20.2106 14.9484 19.6877 14.1423 19.3391C13.3579 18.9905 12.53 18.8162 11.6585 18.8162C10.6127 18.8162 9.66491 19.0777 8.81519 19.6006C7.96547 20.1235 7.29006 20.8316 6.78894 21.7249C6.30961 22.6182 6.06995 23.6095 6.06995 24.6989C6.06995 25.8101 6.32051 26.8123 6.82162 27.7056C7.32274 28.5989 7.99816 29.3179 8.84787 29.8626C9.69759 30.3855 10.6562 30.6469 11.7238 30.6469C12.5736 30.6469 13.3688 30.4726 14.1096 30.124C14.8722 29.7754 15.5912 29.2743 16.2666 28.6207L18.0967 30.5816C17.2252 31.4313 16.223 32.0958 15.09 32.5751C13.9789 33.0545 12.8132 33.2941 11.5931 33.2941Z" fill="white" />
  <path d="M16.0629 25.218C15.8595 25.1062 15.8935 24.7927 16.1136 24.7191C17.5887 24.2259 18.2437 23.4935 18.7602 22.0904C18.8433 21.8645 19.1768 21.8535 19.2748 22.0733C19.8753 23.4208 20.562 24.1268 21.8361 24.6564C22.0565 24.7481 22.0621 25.081 21.8457 25.1817C20.7512 25.691 20.0626 26.3767 19.2714 27.8787C19.1664 28.078 18.8651 28.0602 18.776 27.8534C18.3151 26.7838 17.6402 26.0849 16.0629 25.218Z" fill="white" />
  <path d="M38.826 22.508H36.0045C35.9529 22.143 35.8477 21.8188 35.6888 21.5353C35.5299 21.2476 35.3259 21.0028 35.0769 20.801C34.8278 20.5991 34.54 20.4445 34.2137 20.3372C33.8916 20.2298 33.5416 20.1761 33.1637 20.1761C32.4808 20.1761 31.886 20.3458 31.3793 20.685C30.8725 21.02 30.4796 21.5096 30.2004 22.1537C29.9213 22.7936 29.7817 23.5709 29.7817 24.4857C29.7817 25.4262 29.9213 26.2163 30.2004 26.8562C30.4839 27.4961 30.879 27.9792 31.3857 28.3056C31.8925 28.632 32.4787 28.7952 33.1443 28.7952C33.518 28.7952 33.8637 28.7458 34.1815 28.647C34.5035 28.5483 34.7891 28.4044 35.0382 28.2154C35.2873 28.0222 35.4934 27.7881 35.6566 27.5133C35.8241 27.2384 35.9401 26.9249 36.0045 26.5728L38.826 26.5857C38.753 27.1912 38.5704 27.7753 38.2784 28.3378C37.9907 28.8961 37.602 29.3964 37.1125 29.8388C36.6272 30.2768 36.0474 30.6247 35.3732 30.8823C34.7032 31.1357 33.9453 31.2624 33.0992 31.2624C31.9225 31.2624 30.8704 30.9961 29.9428 30.4636C29.0195 29.9311 28.2894 29.1602 27.7526 28.151C27.2201 27.1418 26.9538 25.92 26.9538 24.4857C26.9538 23.047 27.2243 21.8231 27.7655 20.8139C28.3066 19.8046 29.0409 19.0359 29.9685 18.5077C30.8962 17.9752 31.9397 17.7089 33.0992 17.7089C33.8637 17.7089 34.5723 17.8163 35.225 18.031C35.8821 18.2457 36.464 18.5592 36.9707 18.9715C37.4775 19.3795 37.8898 19.8798 38.2076 20.4724C38.5296 21.0651 38.7358 21.7436 38.826 22.508ZM45.2452 31.2753C44.2446 31.2753 43.3792 31.0627 42.6492 30.6375C41.9234 30.2081 41.363 29.6112 40.9679 28.8467C40.5728 28.078 40.3752 27.1869 40.3752 26.1734C40.3752 25.1513 40.5728 24.2581 40.9679 23.4936C41.363 22.7249 41.9234 22.128 42.6492 21.7028C43.3792 21.2734 44.2446 21.0586 45.2452 21.0586C46.2458 21.0586 47.109 21.2734 47.8348 21.7028C48.5648 22.128 49.1274 22.7249 49.5225 23.4936C49.9176 24.2581 50.1152 25.1513 50.1152 26.1734C50.1152 27.1869 49.9176 28.078 49.5225 28.8467C49.1274 29.6112 48.5648 30.2081 47.8348 30.6375C47.109 31.0627 46.2458 31.2753 45.2452 31.2753ZM45.2581 29.1495C45.7133 29.1495 46.0934 29.0207 46.3983 28.763C46.7032 28.501 46.9329 28.1446 47.0875 27.6937C47.2464 27.2427 47.3259 26.7295 47.3259 26.1541C47.3259 25.5786 47.2464 25.0654 47.0875 24.6145C46.9329 24.1636 46.7032 23.8071 46.3983 23.5452C46.0934 23.2832 45.7133 23.1522 45.2581 23.1522C44.7986 23.1522 44.4121 23.2832 44.0986 23.5452C43.7894 23.8071 43.5553 24.1636 43.3964 24.6145C43.2418 25.0654 43.1645 25.5786 43.1645 26.1541C43.1645 26.7295 43.2418 27.2427 43.3964 27.6937C43.5553 28.1446 43.7894 28.501 44.0986 28.763C44.4121 29.0207 44.7986 29.1495 45.2581 29.1495ZM54.6437 25.3617V31.082H51.8995V21.1875H54.5149V22.9332H54.6308C54.8499 22.3577 55.217 21.9025 55.7324 21.5675C56.2477 21.2283 56.8726 21.0586 57.6069 21.0586C58.2941 21.0586 58.8931 21.2089 59.4042 21.5096C59.9152 21.8102 60.3125 22.2396 60.5959 22.7979C60.8794 23.3519 61.0211 24.0133 61.0211 24.782V31.082H58.2769V25.2716C58.2812 24.666 58.1266 24.1936 57.8131 23.8544C57.4996 23.5108 57.068 23.339 56.5183 23.339C56.149 23.339 55.8226 23.4185 55.5391 23.5774C55.26 23.7363 55.041 23.9682 54.8821 24.2731C54.7275 24.5737 54.648 24.9366 54.6437 25.3617ZM72.0542 21.1875L68.595 31.082H65.5029L62.0437 21.1875H64.9425L66.9974 28.267H67.1005L69.149 21.1875H72.0542ZM77.6102 31.2753C76.6096 31.2753 75.7443 31.0627 75.0142 30.6375C74.2884 30.2081 73.728 29.6112 73.3329 28.8467C72.9378 28.078 72.7403 27.1869 72.7403 26.1734C72.7403 25.1513 72.9378 24.2581 73.3329 23.4936C73.728 22.7249 74.2884 22.128 75.0142 21.7028C75.7443 21.2734 76.6096 21.0586 77.6102 21.0586C78.6109 21.0586 79.4741 21.2734 80.1998 21.7028C80.9299 22.128 81.4925 22.7249 81.8876 23.4936C82.2827 24.2581 82.4802 25.1513 82.4802 26.1734C82.4802 27.1869 82.2827 28.078 81.8876 28.8467C81.4925 29.6112 80.9299 30.2081 80.1998 30.6375C79.4741 31.0627 78.6109 31.2753 77.6102 31.2753ZM77.6231 29.1495C78.0783 29.1495 78.4584 29.0207 78.7633 28.763C79.0682 28.501 79.298 28.1446 79.4526 27.6937C79.6115 27.2427 79.6909 26.7295 79.6909 26.1541C79.6909 25.5786 79.6115 25.0654 79.4526 24.6145C79.298 24.1636 79.0682 23.8071 78.7633 23.5452C78.4584 23.2832 78.0783 23.1522 77.6231 23.1522C77.1636 23.1522 76.7771 23.2832 76.4636 23.5452C76.1544 23.8071 75.9204 24.1636 75.7615 24.6145C75.6069 25.0654 75.5296 25.5786 75.5296 26.1541C75.5296 26.7295 75.6069 27.2427 75.7615 27.6937C75.9204 28.1446 76.1544 28.501 76.4636 28.763C76.7771 29.0207 77.1636 29.1495 77.6231 29.1495ZM89.5855 21.1875V23.2488H83.4787V21.1875H89.5855ZM84.8766 31.082V20.4724C84.8766 19.7553 85.0161 19.1605 85.2953 18.6881C85.5787 18.2157 85.9652 17.8614 86.4548 17.6252C86.9444 17.389 87.5005 17.2709 88.1232 17.2709C88.5441 17.2709 88.9284 17.3031 89.2763 17.3675C89.6284 17.4319 89.8904 17.4899 90.0622 17.5414L89.5726 19.6028C89.4652 19.5684 89.3321 19.5362 89.1732 19.5062C89.0186 19.4761 88.8597 19.4611 88.6965 19.4611C88.2928 19.4611 88.0115 19.5556 87.8527 19.7445C87.6938 19.9292 87.6143 20.189 87.6143 20.524V31.082H84.8766ZM92.9561 34.7925C92.6083 34.7925 92.2819 34.7646 91.977 34.7087C91.6764 34.6572 91.4273 34.5906 91.2297 34.5091L91.8482 32.4606C92.1702 32.5593 92.4601 32.613 92.7178 32.6216C92.9798 32.6302 93.2052 32.5701 93.3942 32.4412C93.5874 32.3124 93.7442 32.0934 93.8644 31.7842L94.0255 31.3655L90.4761 21.1875H93.362L95.4105 28.4538H95.5135L97.5813 21.1875H100.487L96.6408 32.1514C96.4562 32.6839 96.2049 33.1477 95.8871 33.5428C95.5736 33.9422 95.1764 34.2492 94.6954 34.464C94.2144 34.683 93.6347 34.7925 92.9561 34.7925ZM102.976 31.082H99.9873L104.542 17.8893H108.136L112.684 31.082H109.695L106.39 20.904H106.287L102.976 31.082ZM102.789 25.8964H109.85V28.0737H102.789V25.8964ZM117.061 17.8893V31.082H114.272V17.8893H117.061Z" fill="#006FF2" />
  <path d="M33.4878 37.6165H32.8097C32.7696 37.4215 32.6994 37.2501 32.5992 37.1025C32.5008 36.9548 32.3805 36.8309 32.2383 36.7306C32.0979 36.6285 31.9421 36.552 31.7707 36.5009C31.5994 36.4499 31.4207 36.4244 31.2348 36.4244C30.8958 36.4244 30.5886 36.5101 30.3134 36.6814C30.0399 36.8527 29.8221 37.1052 29.6599 37.4388C29.4995 37.7724 29.4193 38.1816 29.4193 38.6665C29.4193 39.1513 29.4995 39.5605 29.6599 39.8941C29.8221 40.2277 30.0399 40.4802 30.3134 40.6515C30.5886 40.8229 30.8958 40.9085 31.2348 40.9085C31.4207 40.9085 31.5994 40.883 31.7707 40.832C31.9421 40.7809 32.0979 40.7053 32.2383 40.605C32.3805 40.5029 32.5008 40.3781 32.5992 40.2304C32.6994 40.081 32.7696 39.9096 32.8097 39.7164H33.4878C33.4368 40.0026 33.3438 40.2587 33.2089 40.4847C33.074 40.7107 32.9063 40.9031 32.7058 41.0616C32.5053 41.2184 32.2802 41.3378 32.0305 41.4198C31.7826 41.5019 31.5173 41.5429 31.2348 41.5429C30.7572 41.5429 30.3325 41.4262 29.9607 41.1929C29.5888 40.9596 29.2962 40.6278 29.083 40.1976C28.8697 39.7674 28.7631 39.257 28.7631 38.6665C28.7631 38.0759 28.8697 37.5655 29.083 37.1353C29.2962 36.7051 29.5888 36.3733 29.9607 36.14C30.3325 35.9067 30.7572 35.79 31.2348 35.79C31.5173 35.79 31.7826 35.8311 32.0305 35.9131C32.2802 35.9951 32.5053 36.1154 32.7058 36.274C32.9063 36.4308 33.074 36.6222 33.2089 36.8482C33.3438 37.0724 33.4368 37.3285 33.4878 37.6165ZM36.2022 41.5538C35.8231 41.5538 35.4904 41.4636 35.2042 41.2831C34.9199 41.1027 34.6975 40.8502 34.5371 40.5257C34.3785 40.2013 34.2992 39.8221 34.2992 39.3883C34.2992 38.9508 34.3785 38.5689 34.5371 38.2426C34.6975 37.9164 34.9199 37.663 35.2042 37.4825C35.4904 37.3021 35.8231 37.2118 36.2022 37.2118C36.5814 37.2118 36.9131 37.3021 37.1975 37.4825C37.4837 37.663 37.7061 37.9164 37.8646 38.2426C38.025 38.5689 38.1053 38.9508 38.1053 39.3883C38.1053 39.8221 38.025 40.2013 37.8646 40.5257C37.7061 40.8502 37.4837 41.1027 37.1975 41.2831C36.9131 41.4636 36.5814 41.5538 36.2022 41.5538ZM36.2022 40.9741C36.4902 40.9741 36.7272 40.9003 36.9131 40.7527C37.0991 40.605 37.2367 40.4109 37.326 40.1703C37.4153 39.9297 37.46 39.669 37.46 39.3883C37.46 39.1076 37.4153 38.846 37.326 38.6036C37.2367 38.3611 37.0991 38.1652 36.9131 38.0157C36.7272 37.8662 36.4902 37.7915 36.2022 37.7915C35.9142 37.7915 35.6773 37.8662 35.4913 38.0157C35.3054 38.1652 35.1678 38.3611 35.0785 38.6036C34.9891 38.846 34.9445 39.1076 34.9445 39.3883C34.9445 39.669 34.9891 39.9297 35.0785 40.1703C35.1678 40.4109 35.3054 40.605 35.4913 40.7527C35.6773 40.9003 35.9142 40.9741 36.2022 40.9741ZM39.7355 38.9399V41.4663H39.0903V37.2665H39.7137V37.9227H39.7684C39.8668 37.7095 40.0163 37.5381 40.2168 37.4087C40.4173 37.2775 40.6761 37.2118 40.9933 37.2118C41.2776 37.2118 41.5265 37.2702 41.7397 37.3868C41.953 37.5017 42.1189 37.6767 42.2374 37.9118C42.3558 38.1451 42.4151 38.4404 42.4151 38.7977V41.4663H41.7698V38.8414C41.7698 38.5115 41.6841 38.2545 41.5128 38.0704C41.3414 37.8845 41.1063 37.7915 40.8074 37.7915C40.6014 37.7915 40.4173 37.8362 40.255 37.9255C40.0946 38.0148 39.9679 38.1451 39.875 38.3165C39.782 38.4878 39.7355 38.6956 39.7355 38.9399ZM46.878 37.2665L45.325 41.4663H44.6688L43.1157 37.2665H43.8157L44.975 40.6132H45.0188L46.1781 37.2665H46.878ZM49.3402 41.5538C48.9356 41.5538 48.5865 41.4645 48.293 41.2858C48.0014 41.1054 47.7762 40.8538 47.6177 40.5312C47.4609 40.2067 47.3825 39.8294 47.3825 39.3992C47.3825 38.969 47.4609 38.5899 47.6177 38.2618C47.7762 37.9319 47.9968 37.6748 48.2793 37.4907C48.5637 37.3048 48.8954 37.2118 49.2746 37.2118C49.4933 37.2118 49.7093 37.2483 49.9226 37.3212C50.1359 37.3941 50.33 37.5126 50.505 37.6767C50.68 37.8389 50.8194 38.054 50.9233 38.3219C51.0272 38.5899 51.0792 38.9198 51.0792 39.3117V39.5852H47.8419V39.0274H50.423C50.423 38.7904 50.3756 38.579 50.2808 38.393C50.1878 38.2071 50.0548 38.0604 49.8816 37.9528C49.7103 37.8453 49.5079 37.7915 49.2746 37.7915C49.0176 37.7915 48.7952 37.8553 48.6074 37.9829C48.4215 38.1087 48.2784 38.2727 48.1782 38.4751C48.0779 38.6774 48.0278 38.8943 48.0278 39.1258V39.4977C48.0278 39.8148 48.0825 40.0837 48.1918 40.3043C48.303 40.523 48.4571 40.6898 48.6539 40.8046C48.8508 40.9176 49.0796 40.9741 49.3402 40.9741C49.5097 40.9741 49.6629 40.9504 49.7996 40.9031C49.9381 40.8538 50.0575 40.7809 50.1578 40.6843C50.258 40.5859 50.3355 40.4638 50.3902 40.3179L51.0136 40.4929C50.9479 40.7044 50.8377 40.8903 50.6827 41.0507C50.5278 41.2093 50.3364 41.3332 50.1085 41.4226C49.8807 41.5101 49.6246 41.5538 49.3402 41.5538ZM52.0608 41.4663V37.2665H52.6842V37.9009H52.7279C52.8045 37.6931 52.943 37.5245 53.1435 37.395C53.344 37.2656 53.5701 37.2009 53.8216 37.2009C53.869 37.2009 53.9283 37.2018 53.9994 37.2036C54.0704 37.2055 54.1242 37.2082 54.1607 37.2118V37.8681C54.1388 37.8626 54.0887 37.8544 54.0103 37.8434C53.9337 37.8307 53.8526 37.8243 53.7669 37.8243C53.5628 37.8243 53.3805 37.8671 53.2201 37.9528C53.0615 38.0367 52.9357 38.1533 52.8428 38.3028C52.7516 38.4504 52.7061 38.6191 52.7061 38.8086V41.4663H52.0608ZM57.9004 38.2071L57.3208 38.3712C57.2843 38.2745 57.2305 38.1807 57.1594 38.0895C57.0902 37.9966 56.9954 37.92 56.8751 37.8599C56.7548 37.7997 56.6007 37.7696 56.413 37.7696C56.156 37.7696 55.9418 37.8289 55.7705 37.9474C55.6009 38.064 55.5162 38.2126 55.5162 38.393C55.5162 38.5534 55.5745 38.6801 55.6912 38.7731C55.8078 38.8661 55.9901 38.9435 56.238 39.0055L56.8614 39.1586C57.2369 39.2498 57.5167 39.3892 57.7008 39.577C57.8849 39.7629 57.977 40.0026 57.977 40.2961C57.977 40.5367 57.9077 40.7518 57.7692 40.9413C57.6325 41.1309 57.4411 41.2804 57.195 41.3898C56.9489 41.4991 56.6627 41.5538 56.3364 41.5538C55.9081 41.5538 55.5535 41.4608 55.2728 41.2749C54.9921 41.089 54.8144 40.8174 54.7396 40.4601L55.3521 40.307C55.4104 40.533 55.5207 40.7025 55.683 40.8156C55.847 40.9286 56.0612 40.9851 56.3255 40.9851C56.6263 40.9851 56.8651 40.9213 57.0419 40.7937C57.2205 40.6643 57.3098 40.5093 57.3098 40.3289C57.3098 40.183 57.2588 40.0609 57.1567 39.9625C57.0546 39.8622 56.8979 39.7875 56.6864 39.7383L55.9865 39.5742C55.6018 39.4831 55.3193 39.3418 55.1388 39.1504C54.9602 38.9572 54.8709 38.7157 54.8709 38.4258C54.8709 38.1889 54.9374 37.9792 55.0705 37.797C55.2054 37.6147 55.3886 37.4716 55.6201 37.3677C55.8534 37.2638 56.1177 37.2118 56.413 37.2118C56.8286 37.2118 57.1549 37.303 57.3919 37.4853C57.6306 37.6675 57.8002 37.9082 57.9004 38.2071ZM58.9483 41.4663V37.2665H59.5936V41.4663H58.9483ZM59.2764 36.5666C59.1506 36.5666 59.0422 36.5237 58.951 36.4381C58.8617 36.3524 58.8171 36.2494 58.8171 36.1291C58.8171 36.0088 58.8617 35.9058 58.951 35.8201C59.0422 35.7344 59.1506 35.6916 59.2764 35.6916C59.4022 35.6916 59.5097 35.7344 59.5991 35.8201C59.6902 35.9058 59.7358 36.0088 59.7358 36.1291C59.7358 36.2494 59.6902 36.3524 59.5991 36.4381C59.5097 36.5237 59.4022 36.5666 59.2764 36.5666ZM62.4816 41.5538C62.1025 41.5538 61.7698 41.4636 61.4836 41.2831C61.1993 41.1027 60.9769 40.8502 60.8165 40.5257C60.6579 40.2013 60.5786 39.8221 60.5786 39.3883C60.5786 38.9508 60.6579 38.5689 60.8165 38.2426C60.9769 37.9164 61.1993 37.663 61.4836 37.4825C61.7698 37.3021 62.1025 37.2118 62.4816 37.2118C62.8608 37.2118 63.1925 37.3021 63.4769 37.4825C63.7631 37.663 63.9855 37.9164 64.144 38.2426C64.3044 38.5689 64.3847 38.9508 64.3847 39.3883C64.3847 39.8221 64.3044 40.2013 64.144 40.5257C63.9855 40.8502 63.7631 41.1027 63.4769 41.2831C63.1925 41.4636 62.8608 41.5538 62.4816 41.5538ZM62.4816 40.9741C62.7696 40.9741 63.0066 40.9003 63.1925 40.7527C63.3785 40.605 63.5161 40.4109 63.6054 40.1703C63.6947 39.9297 63.7394 39.669 63.7394 39.3883C63.7394 39.1076 63.6947 38.846 63.6054 38.6036C63.5161 38.3611 63.3785 38.1652 63.1925 38.0157C63.0066 37.8662 62.7696 37.7915 62.4816 37.7915C62.1936 37.7915 61.9567 37.8662 61.7707 38.0157C61.5848 38.1652 61.4472 38.3611 61.3579 38.6036C61.2685 38.846 61.2239 39.1076 61.2239 39.3883C61.2239 39.669 61.2685 39.9297 61.3579 40.1703C61.4472 40.4109 61.5848 40.605 61.7707 40.7527C61.9567 40.9003 62.1936 40.9741 62.4816 40.9741ZM66.0149 38.9399V41.4663H65.3697V37.2665H65.9931V37.9227H66.0477C66.1462 37.7095 66.2957 37.5381 66.4962 37.4087C66.6967 37.2775 66.9555 37.2118 67.2727 37.2118C67.557 37.2118 67.8059 37.2702 68.0191 37.3868C68.2324 37.5017 68.3983 37.6767 68.5168 37.9118C68.6352 38.1451 68.6945 38.4404 68.6945 38.7977V41.4663H68.0492V38.8414C68.0492 38.5115 67.9635 38.2545 67.7922 38.0704C67.6208 37.8845 67.3857 37.7915 67.0868 37.7915C66.8808 37.7915 66.6967 37.8362 66.5344 37.9255C66.374 38.0148 66.2473 38.1451 66.1544 38.3165C66.0614 38.4878 66.0149 38.6956 66.0149 38.9399ZM72.8485 38.2071L72.2688 38.3712C72.2324 38.2745 72.1786 38.1807 72.1075 38.0895C72.0382 37.9966 71.9434 37.92 71.8231 37.8599C71.7028 37.7997 71.5488 37.7696 71.361 37.7696C71.104 37.7696 70.8898 37.8289 70.7185 37.9474C70.549 38.064 70.4642 38.2126 70.4642 38.393C70.4642 38.5534 70.5226 38.6801 70.6392 38.7731C70.7559 38.8661 70.9382 38.9435 71.1861 39.0055L71.8095 39.1586C72.185 39.2498 72.4648 39.3892 72.6489 39.577C72.833 39.7629 72.925 40.0026 72.925 40.2961C72.925 40.5367 72.8558 40.7518 72.7172 40.9413C72.5805 41.1309 72.3891 41.2804 72.143 41.3898C71.897 41.4991 71.6108 41.5538 71.2845 41.5538C70.8561 41.5538 70.5016 41.4608 70.2209 41.2749C69.9402 41.089 69.7624 40.8174 69.6877 40.4601L70.3002 40.307C70.3585 40.533 70.4688 40.7025 70.631 40.8156C70.7951 40.9286 71.0092 40.9851 71.2736 40.9851C71.5743 40.9851 71.8131 40.9213 71.9899 40.7937C72.1686 40.6643 72.2579 40.5093 72.2579 40.3289C72.2579 40.183 72.2068 40.0609 72.1048 39.9625C72.0027 39.8622 71.8459 39.7875 71.6345 39.7383L70.9345 39.5742C70.5499 39.4831 70.2674 39.3418 70.0869 39.1504C69.9083 38.9572 69.8189 38.7157 69.8189 38.4258C69.8189 38.1889 69.8855 37.9792 70.0185 37.797C70.1534 37.6147 70.3366 37.4716 70.5681 37.3677C70.8014 37.2638 71.0658 37.2118 71.361 37.2118C71.7767 37.2118 72.1029 37.303 72.3399 37.4853C72.5787 37.6675 72.7482 37.9082 72.8485 38.2071ZM79.2117 37.2665C79.1789 36.9895 79.0458 36.7744 78.8125 36.6212C78.5792 36.4681 78.293 36.3916 77.954 36.3916C77.7061 36.3916 77.4891 36.4317 77.3032 36.5119C77.1191 36.5921 76.9751 36.7024 76.8712 36.8427C76.7691 36.9831 76.7181 37.1426 76.7181 37.3212C76.7181 37.4707 76.7536 37.5992 76.8247 37.7067C76.8976 37.8125 76.9906 37.9009 77.1036 37.972C77.2166 38.0412 77.3351 38.0986 77.4591 38.1442C77.583 38.188 77.6969 38.2235 77.8008 38.2509L78.3696 38.404C78.5154 38.4422 78.6776 38.4951 78.8563 38.5626C79.0367 38.63 79.209 38.722 79.373 38.8387C79.5389 38.9535 79.6756 39.1012 79.7832 39.2817C79.8907 39.4621 79.9445 39.6836 79.9445 39.9461C79.9445 40.2487 79.8652 40.5221 79.7066 40.7663C79.5498 41.0106 79.3202 41.2047 79.0176 41.3487C78.7168 41.4927 78.3513 41.5647 77.9212 41.5647C77.5201 41.5647 77.1729 41.5 76.8794 41.3706C76.5878 41.2412 76.3581 41.0607 76.1904 40.8292C76.0245 40.5977 75.9306 40.3289 75.9088 40.0226H76.6087C76.627 40.2341 76.698 40.4091 76.822 40.5476C76.9478 40.6843 77.1064 40.7864 77.2978 40.8538C77.491 40.9195 77.6988 40.9523 77.9212 40.9523C78.18 40.9523 78.4124 40.9103 78.6184 40.8265C78.8244 40.7408 78.9875 40.6223 79.1078 40.471C79.2281 40.3179 79.2883 40.1393 79.2883 39.9351C79.2883 39.7492 79.2363 39.5979 79.1324 39.4813C79.0285 39.3646 78.8918 39.2698 78.7223 39.1969C78.5528 39.124 78.3696 39.0602 78.1727 39.0055L77.4837 38.8086C77.0462 38.6829 76.6999 38.5033 76.4447 38.27C76.1895 38.0367 76.0619 37.7313 76.0619 37.354C76.0619 37.0405 76.1466 36.7671 76.3162 36.5338C76.4875 36.2986 76.7172 36.1163 77.0052 35.9869C77.295 35.8557 77.6186 35.79 77.9758 35.79C78.3368 35.79 78.6576 35.8548 78.9383 35.9842C79.219 36.1118 79.4414 36.2868 79.6054 36.5091C79.7713 36.7315 79.8588 36.984 79.8679 37.2665H79.2117ZM80.9719 41.4663V37.2665H81.6172V41.4663H80.9719ZM81.3 36.5666C81.1742 36.5666 81.0658 36.5237 80.9746 36.4381C80.8853 36.3524 80.8406 36.2494 80.8406 36.1291C80.8406 36.0088 80.8853 35.9058 80.9746 35.8201C81.0658 35.7344 81.1742 35.6916 81.3 35.6916C81.4258 35.6916 81.5333 35.7344 81.6226 35.8201C81.7138 35.9058 81.7593 36.0088 81.7593 36.1291C81.7593 36.2494 81.7138 36.3524 81.6226 36.4381C81.5333 36.5237 81.4258 36.5666 81.3 36.5666ZM82.799 41.4663V37.2665H83.4224V37.9227H83.4771C83.5646 37.6985 83.7059 37.5245 83.9009 37.4005C84.096 37.2747 84.3302 37.2118 84.6036 37.2118C84.8807 37.2118 85.1113 37.2747 85.2954 37.4005C85.4813 37.5245 85.6262 37.6985 85.7301 37.9227H85.7739C85.8814 37.7058 86.0427 37.5336 86.2578 37.406C86.4729 37.2766 86.7309 37.2118 87.0316 37.2118C87.4071 37.2118 87.7143 37.3294 87.9531 37.5646C88.1918 37.7979 88.3112 38.1615 88.3112 38.6555V41.4663H87.666V38.6555C87.666 38.3456 87.5812 38.1242 87.4117 37.9911C87.2422 37.858 87.0426 37.7915 86.8129 37.7915C86.5176 37.7915 86.2888 37.8808 86.1266 38.0595C85.9644 38.2363 85.8832 38.4605 85.8832 38.7321V41.4663H85.227V38.5899C85.227 38.3511 85.1496 38.1588 84.9946 38.013C84.8397 37.8653 84.6401 37.7915 84.3958 37.7915C84.2281 37.7915 84.0714 37.8362 83.9255 37.9255C83.7815 38.0148 83.6649 38.1387 83.5756 38.2973C83.4881 38.4541 83.4443 38.6355 83.4443 38.8414V41.4663H82.799ZM89.4911 43.0412V37.2665H90.1145V37.9337H90.191C90.2384 37.8608 90.304 37.7678 90.3879 37.6548C90.4736 37.5399 90.5957 37.4379 90.7543 37.3486C90.9147 37.2574 91.1316 37.2118 91.405 37.2118C91.7587 37.2118 92.0704 37.3002 92.3401 37.4771C92.6099 37.6539 92.8204 37.9045 92.9717 38.229C93.123 38.5534 93.1987 38.9362 93.1987 39.3774C93.1987 39.8221 93.123 40.2076 92.9717 40.5339C92.8204 40.8584 92.6108 41.1099 92.3429 41.2886C92.0749 41.4654 91.7659 41.5538 91.416 41.5538C91.1462 41.5538 90.9302 41.5091 90.768 41.4198C90.6057 41.3287 90.4809 41.2257 90.3934 41.1109C90.3059 40.9942 90.2384 40.8976 90.191 40.821H90.1363V43.0412H89.4911ZM90.1254 39.3664C90.1254 39.6836 90.1719 39.9634 90.2649 40.2058C90.3578 40.4464 90.4936 40.6351 90.6723 40.7718C90.8509 40.9067 91.0696 40.9741 91.3285 40.9741C91.5982 40.9741 91.8234 40.9031 92.0038 40.7609C92.1861 40.6169 92.3228 40.4237 92.414 40.1812C92.5069 39.937 92.5534 39.6654 92.5534 39.3664C92.5534 39.0711 92.5078 38.805 92.4167 38.568C92.3274 38.3292 92.1916 38.1406 92.0093 38.002C91.8288 37.8617 91.6019 37.7915 91.3285 37.7915C91.066 37.7915 90.8454 37.858 90.6668 37.9911C90.4881 38.1223 90.3533 38.3064 90.2621 38.5434C90.171 38.7786 90.1254 39.0529 90.1254 39.3664ZM94.8283 35.8666V41.4663H94.183V35.8666H94.8283ZM96.0102 41.4663V37.2665H96.6554V41.4663H96.0102ZM96.3383 36.5666C96.2125 36.5666 96.104 36.5237 96.0129 36.4381C95.9236 36.3524 95.8789 36.2494 95.8789 36.1291C95.8789 36.0088 95.9236 35.9058 96.0129 35.8201C96.104 35.7344 96.2125 35.6916 96.3383 35.6916C96.464 35.6916 96.5716 35.7344 96.6609 35.8201C96.752 35.9058 96.7976 36.0088 96.7976 36.1291C96.7976 36.2494 96.752 36.3524 96.6609 36.4381C96.5716 36.5237 96.464 36.5666 96.3383 36.5666ZM99.7075 37.2665V37.8134H97.4436V37.2665H99.7075ZM98.1217 41.4663V36.6869C98.1217 36.4463 98.1782 36.2457 98.2912 36.0853C98.4042 35.9249 98.5509 35.8046 98.7314 35.7244C98.9119 35.6442 99.1024 35.6041 99.3029 35.6041C99.4614 35.6041 99.5909 35.6169 99.6911 35.6424C99.7914 35.6679 99.8661 35.6916 99.9153 35.7135L99.7294 36.2713C99.6966 36.2603 99.651 36.2467 99.5927 36.2303C99.5362 36.2138 99.4614 36.2056 99.3685 36.2056C99.1552 36.2056 99.0012 36.2594 98.9064 36.367C98.8134 36.4745 98.767 36.6322 98.767 36.84V41.4663H98.1217ZM100.612 41.4663V37.2665H101.257V41.4663H100.612ZM100.94 36.5666C100.814 36.5666 100.706 36.5237 100.615 36.4381C100.525 36.3524 100.481 36.2494 100.481 36.1291C100.481 36.0088 100.525 35.9058 100.615 35.8201C100.706 35.7344 100.814 35.6916 100.94 35.6916C101.066 35.6916 101.173 35.7344 101.263 35.8201C101.354 35.9058 101.399 36.0088 101.399 36.1291C101.399 36.2494 101.354 36.3524 101.263 36.4381C101.173 36.5237 101.066 36.5666 100.94 36.5666ZM104.2 41.5538C103.795 41.5538 103.446 41.4645 103.153 41.2858C102.861 41.1054 102.636 40.8538 102.477 40.5312C102.321 40.2067 102.242 39.8294 102.242 39.3992C102.242 38.969 102.321 38.5899 102.477 38.2618C102.636 37.9319 102.856 37.6748 103.139 37.4907C103.423 37.3048 103.755 37.2118 104.134 37.2118C104.353 37.2118 104.569 37.2483 104.782 37.3212C104.996 37.3941 105.19 37.5126 105.365 37.6767C105.54 37.8389 105.679 38.054 105.783 38.3219C105.887 38.5899 105.939 38.9198 105.939 39.3117V39.5852H102.702V39.0274H105.283C105.283 38.7904 105.235 38.579 105.14 38.393C105.047 38.2071 104.914 38.0604 104.741 37.9528C104.57 37.8453 104.368 37.7915 104.134 37.7915C103.877 37.7915 103.655 37.8553 103.467 37.9829C103.281 38.1087 103.138 38.2727 103.038 38.4751C102.938 38.6774 102.887 38.8943 102.887 39.1258V39.4977C102.887 39.8148 102.942 40.0837 103.051 40.3043C103.163 40.523 103.317 40.6898 103.514 40.8046C103.71 40.9176 103.939 40.9741 104.2 40.9741C104.369 40.9741 104.523 40.9504 104.659 40.9031C104.798 40.8538 104.917 40.7809 105.017 40.6843C105.118 40.5859 105.195 40.4638 105.25 40.3179L105.873 40.4929C105.808 40.7044 105.697 40.8903 105.542 41.0507C105.387 41.2093 105.196 41.3332 104.968 41.4226C104.74 41.5101 104.484 41.5538 104.2 41.5538ZM108.506 41.5538C108.156 41.5538 107.847 41.4654 107.579 41.2886C107.311 41.1099 107.102 40.8584 106.951 40.5339C106.799 40.2076 106.724 39.8221 106.724 39.3774C106.724 38.9362 106.799 38.5534 106.951 38.229C107.102 37.9045 107.312 37.6539 107.582 37.4771C107.852 37.3002 108.164 37.2118 108.517 37.2118C108.791 37.2118 109.007 37.2574 109.165 37.3486C109.326 37.4379 109.448 37.5399 109.532 37.6548C109.617 37.7678 109.684 37.8608 109.731 37.9337H109.786V35.8666H110.431V41.4663H109.808V40.821H109.731C109.684 40.8976 109.616 40.9942 109.529 41.1109C109.441 41.2257 109.317 41.3287 109.154 41.4198C108.992 41.5091 108.776 41.5538 108.506 41.5538ZM108.594 40.9741C108.853 40.9741 109.071 40.9067 109.25 40.7718C109.429 40.6351 109.564 40.4464 109.657 40.2058C109.75 39.9634 109.797 39.6836 109.797 39.3664C109.797 39.0529 109.751 38.7786 109.66 38.5434C109.569 38.3064 109.434 38.1223 109.255 37.9911C109.077 37.858 108.856 37.7915 108.594 37.7915C108.32 37.7915 108.093 37.8617 107.91 38.002C107.73 38.1406 107.594 38.3292 107.503 38.568C107.414 38.805 107.369 39.0711 107.369 39.3664C107.369 39.6654 107.414 39.937 107.506 40.1812C107.599 40.4237 107.735 40.6169 107.916 40.7609C108.098 40.9031 108.324 40.9741 108.594 40.9741Z" fill="#006FF2" />
</svg>