<svg width="25" height="42" viewBox="0 0 25 42" fill="none" xmlns="http://www.w3.org/2000/svg">
<path d="M19.623 13.208C22.124 13.2081 24.1514 15.2354 24.1514 17.7363V32.8311C24.1514 35.332 22.124 37.3593 19.623 37.3594H13.6045L8.55371 41.4473C8.00864 41.8665 6.35208 42.5169 6.28906 40.8818V37.3594H4.52832C2.02733 37.3594 0 35.332 0 32.8311V17.7363C0 15.2353 2.02733 13.208 4.52832 13.208H19.623Z" fill="#006FF2"/>
<path d="M11.5931 33.2941C10.0244 33.2941 8.58642 32.9237 7.27916 32.183C5.99369 31.4204 4.96967 30.3855 4.2071 29.0782C3.46632 27.771 3.09593 26.3112 3.09593 24.6989C3.09593 23.0866 3.46632 21.6377 4.2071 20.3523C4.96967 19.0668 5.99369 18.0428 7.27916 17.2802C8.58642 16.4959 10.0244 16.1037 11.5931 16.1037C12.835 16.1037 14.0224 16.3433 15.1554 16.8227C16.3101 17.2802 17.3233 17.9447 18.1948 18.8162L16.2993 20.9079C15.6674 20.2106 14.9484 19.6877 14.1423 19.3391C13.3579 18.9905 12.53 18.8162 11.6585 18.8162C10.6127 18.8162 9.66491 19.0777 8.81519 19.6006C7.96547 20.1235 7.29006 20.8316 6.78894 21.7249C6.30961 22.6182 6.06995 23.6095 6.06995 24.6989C6.06995 25.8101 6.32051 26.8123 6.82162 27.7056C7.32274 28.5989 7.99816 29.3179 8.84787 29.8626C9.69759 30.3855 10.6562 30.6469 11.7238 30.6469C12.5736 30.6469 13.3688 30.4726 14.1096 30.124C14.8722 29.7754 15.5912 29.2743 16.2666 28.6207L18.0967 30.5816C17.2252 31.4313 16.223 32.0958 15.09 32.5751C13.9789 33.0545 12.8132 33.2941 11.5931 33.2941Z" fill="white"/>
<path d="M16.0629 25.218C15.8595 25.1062 15.8935 24.7927 16.1136 24.7191C17.5887 24.2259 18.2437 23.4935 18.7602 22.0904C18.8433 21.8645 19.1768 21.8535 19.2748 22.0733C19.8753 23.4208 20.562 24.1268 21.8361 24.6564C22.0565 24.7481 22.0621 25.081 21.8457 25.1817C20.7512 25.691 20.0626 26.3767 19.2714 27.8787C19.1664 28.078 18.8651 28.0602 18.776 27.8534C18.3151 26.7838 17.6402 26.0849 16.0629 25.218Z" fill="white"/>
</svg>
